<svg width="163" height="32" viewBox="0 0 163 32" fill="none" xmlns="http://www.w3.org/2000/svg">
<path d="M0 0H31.0809V32H0V0Z" fill="#6599CD"/>
<path d="M3.63446 0H27.4465L15.9164 26.7572H15.2272L3.63446 0Z" fill="white"/>
<path d="M15.5614 20.1775L6.57963 0H24.5222L15.5614 20.1775Z" fill="#1A3665"/>
<path d="M39.3461 18.0994H39.354C39.4173 17.8516 39.5201 17.5274 39.6624 17.1267L41.1017 13.1173L40.4612 13.0382C40.4401 12.9591 40.4401 12.8616 40.4612 12.7456C40.7511 12.7667 41.0305 12.7772 41.2994 12.7772C41.5314 12.7772 41.8161 12.7693 42.1535 12.7535C42.1851 12.8484 42.1851 12.9433 42.1535 13.0382L41.6316 13.1331C41.5472 13.2596 41.4418 13.4942 41.3152 13.8369L39.2749 19.3014H38.9982L36.6574 13.1173L36.0168 13.0382C35.9957 12.9591 35.9957 12.8616 36.0168 12.7456C36.3068 12.7667 36.6811 12.7772 37.1397 12.7772C37.551 12.7772 37.9279 12.7693 38.2706 12.7535C38.3022 12.8484 38.3022 12.9433 38.2706 13.0382L37.6142 13.1331L39.0614 17.1267C39.1721 17.4483 39.267 17.7725 39.3461 18.0994Z" fill="#1A3665"/>
<path d="M43.9812 14.0584V18.7162L44.6218 18.7953C44.6428 18.8744 44.6428 18.9719 44.6218 19.0879C44.2896 19.0721 43.9285 19.0642 43.5383 19.0642C43.2537 19.0642 42.8899 19.0695 42.447 19.08C42.4154 18.9851 42.4154 18.8902 42.447 18.7953L43.1034 18.7004C43.1245 18.5001 43.135 18.1917 43.135 17.7752V13.1173L42.4945 13.0382C42.4734 12.9591 42.4734 12.8616 42.4945 12.7456C42.7844 12.7667 43.1456 12.7772 43.5779 12.7772C43.9627 12.7772 44.3265 12.7693 44.6692 12.7535C44.7008 12.8484 44.7008 12.9433 44.6692 13.0382L44.0128 13.1331C43.9917 13.3334 43.9812 13.6419 43.9812 14.0584Z" fill="#1A3665"/>
<path d="M46.3301 18.5185C46.6359 18.7294 47.0656 18.8349 47.6191 18.8349C47.9934 18.8349 48.2729 18.7268 48.4574 18.5106C48.6472 18.2945 48.7421 18.0361 48.7421 17.7356C48.7421 17.5775 48.7289 17.4457 48.7025 17.3402C48.6762 17.2295 48.6182 17.1056 48.5286 16.9685C48.4442 16.8315 48.3071 16.6944 48.1173 16.5573C47.9275 16.4203 47.6798 16.2753 47.374 16.1224C47.0155 15.9431 46.7255 15.7744 46.5041 15.6163C46.2826 15.4581 46.1166 15.2947 46.0059 15.126C45.8952 14.9572 45.8213 14.7965 45.7844 14.6436C45.7475 14.4907 45.7291 14.3009 45.7291 14.0742C45.7291 13.6102 45.9136 13.2517 46.2826 12.9987C46.657 12.7403 47.0972 12.6112 47.6033 12.6112C48.2307 12.6112 48.837 12.7693 49.4222 13.0857V14.604C49.2429 14.6357 49.0927 14.6357 48.9714 14.604L48.7184 13.2359C48.3809 13.0514 48.004 12.9591 47.5875 12.9591C47.3081 12.9591 47.0708 13.0435 46.8758 13.2122C46.686 13.3756 46.5911 13.6076 46.5911 13.9081C46.5911 14.0768 46.6016 14.2086 46.6227 14.3035C46.6438 14.3984 46.6965 14.5118 46.7809 14.6436C46.8652 14.7701 47.0049 14.8993 47.2 15.0311C47.3951 15.1576 47.656 15.2999 47.9829 15.4581C49.1111 16.0064 49.6752 16.6601 49.6752 17.4193C49.6752 17.9571 49.4696 18.392 49.0584 18.7242C48.6472 19.0563 48.1094 19.2224 47.4451 19.2224C46.7861 19.2224 46.1798 19.0668 45.6263 18.7558V17.2374C45.8055 17.2058 45.9558 17.2058 46.077 17.2374L46.3301 18.5185Z" fill="#1A3665"/>
<path d="M50.4211 12.7693H55.8856L55.8936 14.604C55.7776 14.6251 55.68 14.6251 55.601 14.604L55.2293 13.1726H53.5844V18.7162L54.3831 18.7953C54.4042 18.8744 54.4042 18.9719 54.3831 19.0879C54.051 19.0721 53.6503 19.0642 53.1811 19.0642C52.8173 19.0642 52.414 19.0695 51.9711 19.08C51.9395 18.9851 51.9395 18.8902 51.9711 18.7953L52.7066 18.7004C52.7277 18.5001 52.7382 18.1917 52.7382 17.7752V13.1726H51.0775L50.7058 14.604C50.6267 14.6251 50.5292 14.6251 50.4132 14.604L50.4211 12.7693Z" fill="#1A3665"/>
<path d="M56.6015 18.7162L57.2421 18.7953C57.2632 18.8744 57.2632 18.9719 57.2421 19.0879C56.9099 19.0721 56.6305 19.0642 56.4038 19.0642C56.2773 19.0642 55.9926 19.0695 55.5497 19.08C55.5181 18.9851 55.5181 18.8902 55.5497 18.7953L56.0717 18.7004C56.156 18.5739 56.2615 18.3393 56.388 17.9966L58.4283 12.54H58.7051L60.9984 18.7162L61.639 18.7953C61.6601 18.8744 61.6601 18.9719 61.639 19.0879C61.3068 19.0721 60.9352 19.0642 60.5239 19.0642C60.2182 19.0642 59.8438 19.0695 59.401 19.08C59.3694 18.9851 59.3694 18.8902 59.401 18.7953L60.0574 18.7004L59.3614 16.7471H57.3053L56.6015 18.7162ZM58.3571 13.7341H58.3492C58.2859 13.9819 58.1831 14.3061 58.0408 14.7068L57.4477 16.3517H59.2191L58.6418 14.7068C58.5311 14.3852 58.4362 14.061 58.3571 13.7341Z" fill="#1A3665"/>
<path d="M64.5992 11.8441V20.1555C64.4621 20.203 64.3119 20.203 64.1485 20.1555V11.8441C64.3066 11.8072 64.4569 11.8072 64.5992 11.8441Z" fill="#1A3665"/>
<path d="M68.1702 18.7162L68.8108 18.7953C68.8319 18.8744 68.8319 18.9719 68.8108 19.0879C68.4786 19.0721 68.1992 19.0642 67.9725 19.0642C67.846 19.0642 67.5613 19.0695 67.1185 19.08C67.0868 18.9851 67.0868 18.8902 67.1185 18.7953L67.6404 18.7004C67.7247 18.5739 67.8302 18.3393 67.9567 17.9966L69.997 12.54H70.2738L72.5672 18.7162L73.2077 18.7953C73.2288 18.8744 73.2288 18.9719 73.2077 19.0879C72.8756 19.0721 72.5039 19.0642 72.0927 19.0642C71.7869 19.0642 71.4126 19.0695 70.9697 19.08C70.9381 18.9851 70.9381 18.8902 70.9697 18.7953L71.6261 18.7004L70.9302 16.7471H68.8741L68.1702 18.7162ZM69.9258 13.7341H69.9179C69.8547 13.9819 69.7519 14.3061 69.6095 14.7068L69.0164 16.3517H70.7878L70.2105 14.7068C70.0998 14.3852 70.0049 14.061 69.9258 13.7341Z" fill="#1A3665"/>
<path d="M73.4231 19.08C73.3914 18.9851 73.3914 18.8902 73.4231 18.7953L74.0795 18.7004C74.1005 18.5001 74.1111 18.1917 74.1111 17.7752V13.1173L73.4705 13.0382C73.4494 12.9591 73.4494 12.8616 73.4705 12.7456C73.5496 12.7509 73.6735 12.7535 73.8422 12.7535C74.1796 12.7535 74.6146 12.7403 75.1471 12.714C75.6848 12.6823 75.9932 12.6665 76.0723 12.6665C77.1056 12.6665 77.8885 12.946 78.421 13.5048C78.9535 14.0636 79.2197 14.8149 79.2197 15.7586C79.2197 16.7181 78.9693 17.5142 78.4685 18.1469C77.9676 18.7795 77.2664 19.0958 76.3649 19.0958C76.0644 19.0958 75.6664 19.0906 75.1708 19.08C74.6752 19.0747 74.3193 19.0721 74.1032 19.0721C73.7974 19.0721 73.5707 19.0747 73.4231 19.08ZM76.0644 18.7162C77.5511 18.7162 78.2945 17.7462 78.2945 15.8061C78.2945 14.9678 78.0994 14.3061 77.7093 13.8211C77.3244 13.3361 76.7682 13.0778 76.0407 13.0461C75.9774 13.0408 75.8799 13.0382 75.7481 13.0382C75.4686 13.0382 75.2156 13.0593 74.9889 13.1015C74.9678 13.3018 74.9573 13.6208 74.9573 14.0584V18.6925C75.0205 18.6925 75.1708 18.6978 75.408 18.7083C75.6505 18.7136 75.8693 18.7162 76.0644 18.7162Z" fill="#1A3665"/>
<path d="M82.6632 18.0994H82.6711C82.7343 17.8516 82.8371 17.5274 82.9795 17.1267L84.4188 13.1173L83.7782 13.0382C83.7571 12.9591 83.7571 12.8616 83.7782 12.7456C84.0682 12.7667 84.3476 12.7772 84.6165 12.7772C84.8484 12.7772 85.1331 12.7693 85.4705 12.7535C85.5022 12.8484 85.5022 12.9433 85.4705 13.0382L84.9486 13.1331C84.8643 13.2596 84.7588 13.4942 84.6323 13.8369L82.592 19.3014H82.3152L79.9744 13.1173L79.3338 13.0382C79.3128 12.9591 79.3128 12.8616 79.3338 12.7456C79.6238 12.7667 79.9981 12.7772 80.4568 12.7772C80.868 12.7772 81.245 12.7693 81.5877 12.7535C81.6193 12.8484 81.6193 12.9433 81.5877 13.0382L80.9313 13.1331L82.3785 17.1267C82.4892 17.4483 82.5841 17.7725 82.6632 18.0994Z" fill="#1A3665"/>
<path d="M87.2983 14.0584V18.7162L87.9388 18.7953C87.9599 18.8744 87.9599 18.9719 87.9388 19.0879C87.6067 19.0721 87.2455 19.0642 86.8554 19.0642C86.5707 19.0642 86.2069 19.0695 85.7641 19.08C85.7324 18.9851 85.7324 18.8902 85.7641 18.7953L86.4204 18.7004C86.4415 18.5001 86.4521 18.1917 86.4521 17.7752V13.1173L85.8115 13.0382C85.7904 12.9591 85.7904 12.8616 85.8115 12.7456C86.1015 12.7667 86.4626 12.7772 86.8949 12.7772C87.2798 12.7772 87.6436 12.7693 87.9863 12.7535C88.0179 12.8484 88.0179 12.9433 87.9863 13.0382L87.3299 13.1331C87.3088 13.3334 87.2983 13.6419 87.2983 14.0584Z" fill="#1A3665"/>
<path d="M89.6472 18.5185C89.9529 18.7294 90.3826 18.8349 90.9362 18.8349C91.3105 18.8349 91.5899 18.7268 91.7744 18.5106C91.9642 18.2945 92.0591 18.0361 92.0591 17.7356C92.0591 17.5775 92.0459 17.4457 92.0196 17.3402C91.9932 17.2295 91.9352 17.1056 91.8456 16.9685C91.7613 16.8315 91.6242 16.6944 91.4344 16.5573C91.2446 16.4203 90.9968 16.2753 90.691 16.1224C90.3325 15.9431 90.0426 15.7744 89.8211 15.6163C89.5997 15.4581 89.4336 15.2947 89.3229 15.126C89.2122 14.9572 89.1384 14.7965 89.1015 14.6436C89.0646 14.4907 89.0461 14.3009 89.0461 14.0742C89.0461 13.6102 89.2307 13.2517 89.5997 12.9987C89.974 12.7403 90.4142 12.6112 90.9204 12.6112C91.5477 12.6112 92.154 12.7693 92.7392 13.0857V14.604C92.56 14.6357 92.4097 14.6357 92.2885 14.604L92.0354 13.2359C91.698 13.0514 91.321 12.9591 90.9045 12.9591C90.6251 12.9591 90.3879 13.0435 90.1928 13.2122C90.003 13.3756 89.9081 13.6076 89.9081 13.9081C89.9081 14.0768 89.9187 14.2086 89.9398 14.3035C89.9608 14.3984 90.0136 14.5118 90.0979 14.6436C90.1823 14.7701 90.322 14.8993 90.517 15.0311C90.7121 15.1576 90.9731 15.2999 91.2999 15.4581C92.4282 16.0064 92.9923 16.6601 92.9923 17.4193C92.9923 17.9571 92.7867 18.392 92.3755 18.7242C91.9642 19.0563 91.4265 19.2224 90.7622 19.2224C90.1032 19.2224 89.4969 19.0668 88.9433 18.7558V17.2374C89.1226 17.2058 89.2728 17.2058 89.3941 17.2374L89.6472 18.5185Z" fill="#1A3665"/>
<path d="M97.0991 12.6112C97.6158 12.6112 98.0797 12.7034 98.491 12.888C98.9022 13.0725 99.2343 13.3203 99.4874 13.6313C99.7404 13.9371 99.9329 14.2798 100.065 14.6594C100.202 15.0337 100.27 15.4265 100.27 15.8377C100.27 16.7867 99.9724 17.588 99.3767 18.2418C98.7809 18.8955 98.0218 19.2224 97.0991 19.2224C96.5877 19.2224 96.1264 19.1301 95.7152 18.9456C95.304 18.7611 94.9719 18.5159 94.7188 18.2101C94.4657 17.8991 94.2707 17.5564 94.1336 17.1821C94.0018 16.8078 93.9359 16.4176 93.9359 16.0117C93.9359 15.4054 94.0677 14.8439 94.3313 14.3272C94.6002 13.8106 94.9771 13.3967 95.4622 13.0857C95.9525 12.7693 96.4981 12.6112 97.0991 12.6112ZM97.0912 18.7874C97.5868 18.7874 98.0059 18.6451 98.3486 18.3604C98.6966 18.0704 98.9444 17.7066 99.092 17.2691C99.2449 16.8315 99.3213 16.3438 99.3213 15.8061C99.3213 15.2947 99.2449 14.8386 99.092 14.4379C98.9444 14.032 98.6992 13.6999 98.3565 13.4415C98.0138 13.1779 97.5921 13.0461 97.0912 13.0461C96.369 13.0461 95.8207 13.3097 95.4463 13.8369C95.072 14.3641 94.8849 15.0232 94.8849 15.814C94.8849 16.357 94.9587 16.8473 95.1063 17.2849C95.2539 17.7172 95.4991 18.0757 95.8417 18.3604C96.1844 18.6451 96.6009 18.7874 97.0912 18.7874Z" fill="#1A3665"/>
<path d="M101.025 12.7456C101.242 12.7456 101.584 12.7351 102.053 12.714C102.528 12.6929 102.958 12.6823 103.342 12.6823C104.144 12.6823 104.716 12.8431 105.059 13.1647C105.401 13.4811 105.573 13.9239 105.573 14.4933C105.573 14.836 105.454 15.1444 105.217 15.4186C104.979 15.6927 104.668 15.8983 104.284 16.0354C104.51 16.4203 104.721 16.7814 104.916 17.1188C105.117 17.4562 105.262 17.7066 105.351 17.8701C105.441 18.0335 105.522 18.1811 105.596 18.3129C105.67 18.4395 105.723 18.5265 105.754 18.5739C105.791 18.6213 105.826 18.6609 105.857 18.6925L106.427 18.7716C106.448 18.8507 106.448 18.9482 106.427 19.0642H105.082L103.888 16.8974C103.73 16.5969 103.58 16.3649 103.437 16.2015H103.327C103.058 16.2015 102.786 16.1856 102.512 16.154V18.7162L103.232 18.7953C103.253 18.8744 103.253 18.9719 103.232 19.0879C102.9 19.0721 102.525 19.0642 102.109 19.0642C101.798 19.0642 101.421 19.0695 100.978 19.08C100.946 18.9851 100.946 18.8902 100.978 18.7953L101.634 18.7004C101.655 18.5001 101.666 18.1917 101.666 17.7752V13.1173L101.025 13.0382C101.004 12.9591 101.004 12.8616 101.025 12.7456ZM102.512 14.0584V15.8298C102.676 15.8509 102.913 15.8614 103.224 15.8614C103.493 15.8614 103.722 15.8192 103.912 15.7349C104.107 15.6453 104.252 15.5293 104.347 15.3869C104.442 15.2393 104.51 15.0891 104.552 14.9362C104.595 14.7833 104.616 14.6225 104.616 14.4538C104.616 14.0004 104.502 13.6471 104.276 13.3941C104.049 13.141 103.672 13.0145 103.145 13.0145C102.95 13.0145 102.755 13.0329 102.56 13.0698C102.528 13.3704 102.512 13.6999 102.512 14.0584Z" fill="#1A3665"/>
<path d="M108.027 14.1216L109.071 15.9089L110.724 13.1173L110.083 13.0382C110.062 12.9591 110.062 12.8616 110.083 12.7456C110.373 12.7667 110.663 12.7772 110.953 12.7772C111.206 12.7772 111.502 12.7693 111.839 12.7535C111.871 12.8484 111.871 12.9433 111.839 13.0382L111.349 13.1331C111.122 13.3914 110.948 13.626 110.827 13.8369L109.277 16.3675V18.7162L109.917 18.7953C109.938 18.8744 109.938 18.9719 109.917 19.0879C109.585 19.0721 109.224 19.0642 108.834 19.0642C108.549 19.0642 108.185 19.0695 107.743 19.08C107.711 18.9851 107.711 18.8902 107.743 18.7953L108.399 18.7004C108.42 18.5001 108.431 18.1917 108.431 17.7752V16.3438L106.541 13.1173L105.979 13.0382C105.958 12.9591 105.958 12.8616 105.979 12.7456C106.269 12.7667 106.664 12.7772 107.165 12.7772C107.624 12.7772 108.025 12.7693 108.367 12.7535C108.399 12.8484 108.399 12.9433 108.367 13.0382L107.592 13.1885C107.756 13.5944 107.901 13.9055 108.027 14.1216Z" fill="#1A3665"/>
<path d="M114.782 11.8441V20.1555C114.645 20.203 114.494 20.203 114.331 20.1555V11.8441C114.489 11.8072 114.639 11.8072 114.782 11.8441Z" fill="#1A3665"/>
<path d="M117.799 12.7456C118.015 12.7456 118.358 12.7351 118.827 12.714C119.302 12.6929 119.731 12.6823 120.116 12.6823C120.934 12.6823 121.516 12.8431 121.864 13.1647C122.212 13.4811 122.386 13.9239 122.386 14.4933C122.386 14.9994 122.159 15.4238 121.706 15.7665C121.258 16.1092 120.723 16.2805 120.101 16.2805C119.779 16.2805 119.507 16.2647 119.286 16.2331V18.7162L120.006 18.7953C120.027 18.8744 120.027 18.9719 120.006 19.0879C119.673 19.0721 119.299 19.0642 118.883 19.0642C118.572 19.0642 118.195 19.0695 117.752 19.08C117.72 18.9851 117.72 18.8902 117.752 18.7953L118.408 18.7004C118.429 18.5001 118.44 18.1917 118.44 17.7752V13.1173L117.799 13.0382C117.778 12.9591 117.778 12.8616 117.799 12.7456ZM119.286 14.0584V15.9089C119.449 15.9299 119.687 15.9405 119.998 15.9405C120.272 15.9405 120.506 15.8957 120.702 15.8061C120.902 15.7112 121.052 15.5873 121.152 15.4344C121.252 15.2762 121.324 15.118 121.366 14.9599C121.408 14.8017 121.429 14.633 121.429 14.4538C121.429 13.9951 121.313 13.6419 121.081 13.3941C120.849 13.141 120.462 13.0145 119.919 13.0145C119.724 13.0145 119.529 13.0329 119.333 13.0698C119.302 13.3704 119.286 13.6999 119.286 14.0584Z" fill="#1A3665"/>
<path d="M123.025 18.7162L123.666 18.7953C123.687 18.8744 123.687 18.9719 123.666 19.0879C123.334 19.0721 123.054 19.0642 122.827 19.0642C122.701 19.0642 122.416 19.0695 121.973 19.08C121.942 18.9851 121.942 18.8902 121.973 18.7953L122.495 18.7004C122.58 18.5739 122.685 18.3393 122.812 17.9966L124.852 12.54H125.129L127.422 18.7162L128.063 18.7953C128.084 18.8744 128.084 18.9719 128.063 19.0879C127.73 19.0721 127.359 19.0642 126.948 19.0642C126.642 19.0642 126.267 19.0695 125.825 19.08C125.793 18.9851 125.793 18.8902 125.825 18.7953L126.481 18.7004L125.785 16.7471H123.729L123.025 18.7162ZM124.781 13.7341H124.773C124.71 13.9819 124.607 14.3061 124.464 14.7068L123.871 16.3517H125.643L125.065 14.7068C124.955 14.3852 124.86 14.061 124.781 13.7341Z" fill="#1A3665"/>
<path d="M128.325 12.7456C128.542 12.7456 128.884 12.7351 129.353 12.714C129.828 12.6929 130.258 12.6823 130.642 12.6823C131.444 12.6823 132.016 12.8431 132.359 13.1647C132.701 13.4811 132.873 13.9239 132.873 14.4933C132.873 14.836 132.754 15.1444 132.517 15.4186C132.279 15.6927 131.968 15.8983 131.584 16.0354C131.81 16.4203 132.021 16.7814 132.216 17.1188C132.417 17.4562 132.562 17.7066 132.651 17.8701C132.741 18.0335 132.822 18.1811 132.896 18.3129C132.97 18.4395 133.023 18.5265 133.054 18.5739C133.091 18.6213 133.126 18.6609 133.157 18.6925L133.727 18.7716C133.748 18.8507 133.748 18.9482 133.727 19.0642H132.382L131.188 16.8974C131.03 16.5969 130.88 16.3649 130.737 16.2015H130.627C130.358 16.2015 130.086 16.1856 129.812 16.154V18.7162L130.532 18.7953C130.553 18.8744 130.553 18.9719 130.532 19.0879C130.2 19.0721 129.825 19.0642 129.409 19.0642C129.098 19.0642 128.721 19.0695 128.278 19.08C128.246 18.9851 128.246 18.8902 128.278 18.7953L128.934 18.7004C128.955 18.5001 128.966 18.1917 128.966 17.7752V13.1173L128.325 13.0382C128.304 12.9591 128.304 12.8616 128.325 12.7456ZM129.812 14.0584V15.8298C129.976 15.8509 130.213 15.8614 130.524 15.8614C130.793 15.8614 131.022 15.8192 131.212 15.7349C131.407 15.6453 131.552 15.5293 131.647 15.3869C131.742 15.2393 131.81 15.0891 131.852 14.9362C131.895 14.7833 131.916 14.6225 131.916 14.4538C131.916 14.0004 131.802 13.6471 131.576 13.3941C131.349 13.141 130.972 13.0145 130.445 13.0145C130.25 13.0145 130.055 13.0329 129.86 13.0698C129.828 13.3704 129.812 13.6999 129.812 14.0584Z" fill="#1A3665"/>
<path d="M133.75 12.7693H139.214L139.222 14.604C139.106 14.6251 139.009 14.6251 138.93 14.604L138.558 13.1726H136.913V18.7162L137.712 18.7953C137.733 18.8744 137.733 18.9719 137.712 19.0879C137.38 19.0721 136.979 19.0642 136.51 19.0642C136.146 19.0642 135.743 19.0695 135.3 19.08C135.268 18.9851 135.268 18.8902 135.3 18.7953L136.035 18.7004C136.056 18.5001 136.067 18.1917 136.067 17.7752V13.1726H134.406L134.035 14.604C133.955 14.6251 133.858 14.6251 133.742 14.604L133.75 12.7693Z" fill="#1A3665"/>
<path d="M144.949 16.9448V14.0821C144.949 13.6656 144.938 13.3572 144.917 13.1568L144.181 13.0619C144.15 12.967 144.15 12.8721 144.181 12.7772C144.514 12.7931 144.835 12.801 145.146 12.801C145.489 12.801 145.808 12.7904 146.103 12.7693C146.124 12.8853 146.124 12.9829 146.103 13.0619L145.383 13.141V19.0642H144.964L141.477 14.3431C141.313 14.1269 141.121 13.8448 140.9 13.4969C140.926 13.7394 140.939 14.032 140.939 14.3747V17.7752C140.939 18.1917 140.95 18.5001 140.971 18.7004L141.706 18.7953C141.738 18.8902 141.738 18.9851 141.706 19.08C141.253 19.0695 140.931 19.0642 140.741 19.0642C140.43 19.0642 140.111 19.0721 139.785 19.0879C139.763 18.9719 139.763 18.8744 139.785 18.7953L140.504 18.7162V14.0584C140.504 13.6419 140.494 13.3334 140.473 13.1331L139.816 13.0382C139.785 12.9486 139.785 12.859 139.816 12.7693H141.366L144.537 17.0872C144.579 17.1452 144.624 17.2137 144.672 17.2928C144.724 17.3719 144.78 17.4668 144.838 17.5775C144.901 17.6882 144.951 17.7725 144.988 17.8305C144.962 17.5142 144.949 17.219 144.949 16.9448Z" fill="#1A3665"/>
<path d="M147.447 17.7831V13.1173L146.806 13.0303C146.774 12.9354 146.774 12.8405 146.806 12.7456L147.889 12.7693H151.084L151.092 14.604C150.976 14.6251 150.879 14.6251 150.8 14.604L150.428 13.1726H148.293V15.5451L149.558 15.5214L149.74 14.7464C149.819 14.7253 149.917 14.7253 150.033 14.7464C150.011 15.0416 150.001 15.3817 150.001 15.7665C150.001 16.1197 150.009 16.4624 150.025 16.7946C149.93 16.8262 149.835 16.8262 149.74 16.7946L149.566 15.9721L148.293 15.9484V18.6609H150.665L151.037 17.2295C151.116 17.2084 151.213 17.2084 151.329 17.2295L151.322 19.0642H147.889L146.759 19.0879C146.727 18.993 146.727 18.8981 146.759 18.8032L147.415 18.7162C147.436 18.4474 147.447 18.1363 147.447 17.7831Z" fill="#1A3665"/>
<path d="M152.173 12.7456C152.389 12.7456 152.732 12.7351 153.201 12.714C153.676 12.6929 154.106 12.6823 154.49 12.6823C155.292 12.6823 155.864 12.8431 156.206 13.1647C156.549 13.4811 156.721 13.9239 156.721 14.4933C156.721 14.836 156.602 15.1444 156.365 15.4186C156.127 15.6927 155.816 15.8983 155.431 16.0354C155.658 16.4203 155.869 16.7814 156.064 17.1188C156.264 17.4562 156.409 17.7066 156.499 17.8701C156.589 18.0335 156.67 18.1811 156.744 18.3129C156.818 18.4395 156.871 18.5265 156.902 18.5739C156.939 18.6213 156.974 18.6609 157.005 18.6925L157.575 18.7716C157.596 18.8507 157.596 18.9482 157.575 19.0642H156.23L155.036 16.8974C154.878 16.5969 154.728 16.3649 154.585 16.2015H154.475C154.206 16.2015 153.934 16.1856 153.66 16.154V18.7162L154.38 18.7953C154.401 18.8744 154.401 18.9719 154.38 19.0879C154.048 19.0721 153.673 19.0642 153.257 19.0642C152.946 19.0642 152.569 19.0695 152.126 19.08C152.094 18.9851 152.094 18.8902 152.126 18.7953L152.782 18.7004C152.803 18.5001 152.814 18.1917 152.814 17.7752V13.1173L152.173 13.0382C152.152 12.9591 152.152 12.8616 152.173 12.7456ZM153.66 14.0584V15.8298C153.824 15.8509 154.061 15.8614 154.372 15.8614C154.641 15.8614 154.87 15.8192 155.06 15.7349C155.255 15.6453 155.4 15.5293 155.495 15.3869C155.59 15.2393 155.658 15.0891 155.7 14.9362C155.743 14.7833 155.764 14.6225 155.764 14.4538C155.764 14.0004 155.65 13.6471 155.424 13.3941C155.197 13.141 154.82 13.0145 154.293 13.0145C154.098 13.0145 153.903 13.0329 153.708 13.0698C153.676 13.3704 153.66 13.6999 153.66 14.0584Z" fill="#1A3665"/>
<path d="M158.743 18.5185C159.049 18.7294 159.478 18.8349 160.032 18.8349C160.406 18.8349 160.686 18.7268 160.87 18.5106C161.06 18.2945 161.155 18.0361 161.155 17.7356C161.155 17.5775 161.142 17.4457 161.115 17.3402C161.089 17.2295 161.031 17.1056 160.941 16.9685C160.857 16.8315 160.72 16.6944 160.53 16.5573C160.34 16.4203 160.092 16.2753 159.787 16.1224C159.428 15.9431 159.138 15.7744 158.917 15.6163C158.695 15.4581 158.529 15.2947 158.419 15.126C158.308 14.9572 158.234 14.7965 158.197 14.6436C158.16 14.4907 158.142 14.3009 158.142 14.0742C158.142 13.6102 158.326 13.2517 158.695 12.9987C159.07 12.7403 159.51 12.6112 160.016 12.6112C160.643 12.6112 161.25 12.7693 161.835 13.0857V14.604C161.656 14.6357 161.505 14.6357 161.384 14.604L161.131 13.2359C160.794 13.0514 160.417 12.9591 160 12.9591C159.721 12.9591 159.484 13.0435 159.288 13.2122C159.099 13.3756 159.004 13.6076 159.004 13.9081C159.004 14.0768 159.014 14.2086 159.035 14.3035C159.057 14.3984 159.109 14.5118 159.194 14.6436C159.278 14.7701 159.418 14.8993 159.613 15.0311C159.808 15.1576 160.069 15.2999 160.396 15.4581C161.524 16.0064 162.088 16.6601 162.088 17.4193C162.088 17.9571 161.882 18.392 161.471 18.7242C161.06 19.0563 160.522 19.2224 159.858 19.2224C159.199 19.2224 158.593 19.0668 158.039 18.7558V17.2374C158.218 17.2058 158.369 17.2058 158.49 17.2374L158.743 18.5185Z" fill="#1A3665"/>
</svg>
